<svg width="81" height="84" viewBox="0 0 81 84" fill="none" xmlns="http://www.w3.org/2000/svg">
<path d="M11.2486 11.4087C14.6597 7.94882 18.7201 5.20572 23.194 3.33879C27.6678 1.47186 32.4657 0.518333 37.3089 0.533628C38.0417 0.596566 38.7242 0.933938 39.2216 1.47901C39.719 2.02408 39.995 2.73715 39.995 3.47717C39.995 4.21719 39.719 4.93026 39.2216 5.47533C38.7242 6.0204 38.0417 6.35777 37.3089 6.42071C29.0827 6.42071 21.1933 9.70913 15.3765 15.5626C9.55967 21.416 6.29181 29.3549 6.29181 37.6329C6.22926 38.3703 5.894 39.0571 5.35234 39.5576C4.81067 40.0582 4.10206 40.3359 3.36667 40.3359C2.63127 40.3359 1.92266 40.0582 1.38099 39.5576C0.839328 39.0571 0.504069 38.3703 0.441525 37.6329C0.426325 32.7592 1.37389 27.9311 3.22915 23.4292C5.08441 18.9272 7.81037 14.8412 11.2486 11.4087Z" fill="#224364"/>
<path d="M23.247 37.6329C23.247 38.4107 22.9399 39.1567 22.3933 39.7067C21.8468 40.2567 21.1054 40.5657 20.3325 40.5657C19.5595 40.5657 18.8182 40.2567 18.2716 39.7067C17.725 39.1567 17.418 38.4107 17.418 37.6329C17.4292 32.3317 19.5299 27.2516 23.2589 23.5071C26.988 19.7626 32.0409 17.6597 37.3089 17.6597C38.0819 17.6597 38.8232 17.9687 39.3698 18.5187C39.9164 19.0687 40.2234 19.8147 40.2234 20.5925C40.2234 21.3703 39.9164 22.1163 39.3698 22.6663C38.8232 23.2163 38.0819 23.5253 37.3089 23.5253C33.5902 23.5366 30.0264 25.0251 27.3929 27.6672C24.7595 30.3092 23.2694 33.8909 23.247 37.6329Z" fill="#224364"/>
<path d="M29.7142 52.6181C31.3266 52.6018 32.9126 53.03 34.3002 53.8565C35.6878 54.683 36.824 55.8761 37.5855 57.3064C38.0227 57.9508 38.1877 58.7436 38.0441 59.5104C37.9004 60.2772 37.46 60.9552 36.8196 61.3952C36.1792 61.8352 35.3914 62.0012 34.6294 61.8567C33.8673 61.7122 33.1936 61.269 32.7563 60.6246C31.4799 58.7407 30.9055 58.4838 30.1184 58.4838C27.5868 58.7835 17.6307 66.1263 16.6308 68.4169C16.3748 69.1072 16.3748 69.8673 16.6308 70.5577C16.9796 71.9169 17.6036 73.1891 18.4639 74.2942C19.3242 75.3994 20.4022 76.3137 21.6302 76.9799C22.8283 77.4361 24.1059 77.6429 25.3858 77.5877C26.6656 77.5325 27.921 77.2165 29.076 76.6588C39.1757 72.5942 48.3788 66.5633 56.1575 58.912C63.7407 51.0848 69.7188 41.8321 73.7509 31.6816C74.3165 30.5033 74.6349 29.2204 74.6861 27.9129C74.7374 26.6054 74.5204 25.3013 74.0487 24.0819C73.3866 22.8462 72.478 21.7614 71.3798 20.8957C70.2815 20.03 69.0173 19.402 67.6666 19.0511C66.9812 18.7896 66.2245 18.7896 65.5392 19.0511C63.2416 20.0572 55.9447 30.076 55.6469 32.5807C55.6469 33.4156 55.9022 33.9936 57.7743 35.278C58.3289 35.7368 58.6958 36.3855 58.8045 37.0997C58.9132 37.8139 58.7561 38.5433 58.3633 39.1481C57.9705 39.7529 57.3697 40.1906 56.6761 40.3771C55.9824 40.5636 55.2447 40.486 54.6045 40.1589C53.1912 39.3996 52.0106 38.2668 51.1897 36.8824C50.3687 35.498 49.9386 33.9145 49.9455 32.3024C50.2008 27.5927 59.2847 15.1763 63.6033 13.5708C65.5539 12.8521 67.6944 12.8521 69.645 13.5708C71.7421 14.1766 73.6911 15.2146 75.3684 16.6186C77.0457 18.0227 78.4147 19.7623 79.3884 21.727C80.2109 23.6626 80.6225 25.7498 80.5969 27.8547C80.5713 29.9597 80.1089 32.036 79.2395 33.9508C74.9226 44.8323 68.5014 54.743 60.3484 63.1078C52.0091 71.3039 42.1398 77.7575 31.3097 82.0963C29.2423 82.9773 27.0237 83.4428 24.7787 83.4664C22.8407 83.4751 20.9242 83.0587 19.1624 82.2462C17.21 81.2663 15.4812 79.8888 14.0859 78.2009C12.6906 76.5131 11.6592 74.5518 11.0571 72.4415C10.3553 70.4838 10.3553 68.3409 11.0571 66.3832C12.6739 61.9946 25.034 52.875 29.7142 52.6181Z" fill="#224364"/>
</svg>
