<svg width="66" height="86" viewBox="0 0 66 86" fill="none" xmlns="http://www.w3.org/2000/svg">
<path d="M33 0.912853C24.4835 0.912853 16.3159 4.296 10.2939 10.318C4.27182 16.3401 0.888672 24.5077 0.888672 33.0242C0.888672 44.4558 4.35669 49.0156 21.0546 71.0226C23.9446 74.8331 27.2199 79.1574 30.9877 84.1668C31.217 84.4725 31.5143 84.7207 31.8562 84.8916C32.198 85.0625 32.575 85.1515 32.9572 85.1515C33.3394 85.1515 33.7163 85.0625 34.0582 84.8916C34.4 84.7207 34.6973 84.4725 34.9267 84.1668C38.673 79.2002 41.9269 74.8759 44.817 71.0868C61.5791 48.9514 65.0685 44.3488 65.0685 32.9599C65.0685 24.4435 61.6853 16.2759 55.6633 10.2538C49.6413 4.23178 41.4736 0.848633 32.9572 0.848633L33 0.912853ZM40.9208 68.0255L33 78.6008C30.0672 74.5976 27.4126 71.1082 25.015 67.8971C8.78805 46.4895 5.87663 42.6362 5.87663 32.8743C5.87663 25.6808 8.73426 18.7818 13.8209 13.6952C18.9075 8.60859 25.8064 5.75096 33 5.75096C40.1935 5.75096 47.0925 8.60859 52.1791 13.6952C57.2657 18.7818 60.1233 25.6808 60.1233 32.8743C60.1233 42.6147 57.1905 46.4895 40.8566 67.9399L40.9208 68.0255Z" fill="#224364"/>
<path d="M33 15.7053C29.5823 15.7053 26.2413 16.7191 23.3999 18.6183C20.5584 20.5176 18.3441 23.217 17.0372 26.375C15.7302 29.533 15.3894 33.0077 16.0577 36.3594C16.726 39.7112 18.3735 42.7895 20.7917 45.2047C23.21 47.6199 26.2902 49.2636 29.6428 49.9278C32.9954 50.5919 36.4697 50.2467 39.6261 48.9359C42.7825 47.625 45.4791 45.4074 47.3748 42.5636C49.2706 39.7198 50.2802 36.3776 50.2759 32.9598C50.2703 28.3817 48.4476 23.993 45.2084 20.7577C41.9691 17.5225 37.5782 15.7053 33 15.7053ZM33 45.312C30.5561 45.3162 28.1659 44.5954 26.1317 43.2407C24.0976 41.886 22.5111 39.9583 21.5729 37.7016C20.6347 35.4449 20.387 32.9607 20.8612 30.5632C21.3354 28.1657 22.5101 25.9627 24.2368 24.2331C25.9634 22.5035 28.1643 21.3249 30.561 20.8466C32.9576 20.3682 35.4423 20.6116 37.7007 21.5459C39.959 22.4801 41.8894 24.0633 43.2476 26.0951C44.6058 28.1269 45.3308 30.5159 45.3308 32.9598C45.3308 36.2321 44.0324 39.3707 41.7205 41.6865C39.4087 44.0024 36.2723 45.3063 33 45.312Z" fill="#224364"/>
</svg>
