<svg id="f43e4df6-a859-4fa0-b2ad-1933202ab8df" data-name="Capa 1" xmlns="http://www.w3.org/2000/svg" viewBox="0 0 885 447"><title>unido</title><path d="M884.49,349.08A70.59,70.59,0,0,0,878,321q-10.07-21.83-33.07-28.91a77.25,77.25,0,0,0-34.16-2.47c-15.55,2.25-29,8.51-39.88,20.11-.54.59-1.1,1.16-1.66,1.73a.92.92,0,0,1-1.6-.12l-.86-1.15a50.85,50.85,0,0,0-22.14-16.68,72.38,72.38,0,0,0-38.92-3.63c-12.29,2.1-23.16,7.16-32.14,16-.27.25-.52.66-1,.38a5.29,5.29,0,0,1-.18-2.34c0-3.36,0-6.72,0-10.08,0-2.27-.26-2.49-2.44-2.59-.4,0-.8,0-1.2,0H623.84c-3.57,0-3.58,0-3.58,3.62V440.71c0,3.74,0,3.74,3.65,3.74h47c4.16,0,4.19.44,4.19-4.18q0-36.11,0-72.23a49.91,49.91,0,0,1,1.94-14.44,27.56,27.56,0,0,1,5.5-10.56c6.8-7.73,15.58-9.13,25.17-7.73a17.32,17.32,0,0,1,7.67,3.22c4.23,3.05,6.57,7.34,8,12.21a57,57,0,0,1,2,16.13q0,37.08,0,74.15c0,3.42,0,3.43,3.48,3.43h47.51c3.88,0,3.89,0,3.89-4V379.49c0-4.56,0-9.12,0-13.67a41.14,41.14,0,0,1,3.37-16.34c3.1-7,8.21-11.7,15.64-13.78a30.15,30.15,0,0,1,8.57-.83c9.71.11,16.52,5,19.73,14.21a50.61,50.61,0,0,1,2.49,17q0,37.32,0,74.63c0,3.74,0,3.74,3.67,3.74h48c1,0,2.08-.1,3.11-.15V351.18A5.19,5.19,0,0,1,884.49,349.08ZM244-.18H192.68a8.45,8.45,0,0,1-1.07,3.41Q185.36,16,179.11,28.88q-15.77,32.48-31.51,65-7.44,15.31-14.85,30.65c-2.27,4.68-4.52,9.36-6.8,14a7.11,7.11,0,0,1-1.33,2.28c-.84,0-.92-.79-1.17-1.32q-9.9-20.65-19.77-41.32-13.5-28.25-27-56.48C71.14,30.06,65.57,18.46,60.12,6.8a11.88,11.88,0,0,0-8.56-7H2.36c-.56,0-1.12,0-1.68,0C-.26-.23.4.48.2.78A5.2,5.2,0,0,1,1.78,3.14Q6.9,13.73,12,24.33q7,14.58,14.1,29.16,14.75,30.45,29.49,60.9c4.39,9.07,8.85,18.11,13.24,27.18Q81.26,167.27,93.63,193c2.2,4.6,5.74,6.61,10.71,6.58,7.52,0,15,0,22.56,0,4.72,0,9.44,0,14.16,0A10.72,10.72,0,0,0,151.54,193c.55-1.16,1.05-2.34,1.61-3.49q8.16-16.84,16.35-33.67t16.24-33.46c5.46-11.22,10.88-22.45,16.36-33.66,6.82-13.94,13.62-27.89,20.25-41.92,6.94-14.68,14-29.32,20.94-44A4.65,4.65,0,0,0,244-.18ZM554.15,298c-12.56-6.34-26.1-8.91-40.11-9.23a99.21,99.21,0,0,0-14.1.84c-15.05,1.81-28.92,6.73-41.29,15.59a73.58,73.58,0,0,0-25.74,32.46,79.41,79.41,0,0,0-5,41.2c2.73,20.4,12.36,37,28.71,49.49,13,10,28,15.2,44.09,17.54,3.07.45,6.22.36,9.22,1.31h17.28a3.94,3.94,0,0,1,1.84-.45,144.57,144.57,0,0,0,15.64-2.34c14.61-3.28,27.58-9.62,38.14-20.43,1.86-1.9,1.87-2,.09-3.84l-25.49-26.07c-1.71-1.76-1.71-1.73-3.68-.14-5.67,4.56-11.83,8.18-18.95,10a59.72,59.72,0,0,1-17.58,1.61,49.07,49.07,0,0,1-13-2.12c-9.27-3-16.34-8.61-20.32-17.7-1.63-3.74-1.6-3.77,2.45-3.77H590.06c.88,0,1.76,0,2.64,0,1.76-.11,2.11-.42,2.27-2.11.88-9.67,1-19.31-.85-28.9C589.39,326.74,576.07,309,554.15,298Zm-12.49,55H485.57c-.56,0-1.12,0-1.68,0-2.09-.07-2.26-.25-1.73-2.26,3.39-12.88,12.9-21.58,26.31-23.08a34.8,34.8,0,0,1,19.37,3c8.5,4.07,13.47,11,15.79,20C544.15,352.69,543.89,353,541.66,353ZM224.5,433.06q-10.49-26.68-21-53.37Q186,335.05,168.38,290.4l-16.86-42.86c-1-2.5-1-2.56-3.88-2.56-16.16,0-32.31,0-48.47,0a3.81,3.81,0,0,0-4,2.61c-3.73,8.06-7.56,16.07-11.38,24.08q-13.26,27.83-26.57,55.63-15,31.39-29.95,62.79c-2.65,5.56-5.31,11.12-7.92,16.69-1,2.12-.86,2.31,1.47,2.84a23.78,23.78,0,0,0,5.26.32c10.8,0,21.6-.08,32.39.05,4.39.05,7.22-1.76,9.07-5.69,4-8.39,8-16.72,12.09-25.06Q92,353.72,104.39,328.26q7.45-15.31,15-30.6c.26-.54.31-1.27,1.12-1.57a11.93,11.93,0,0,1,1.46,3.21q20.67,53.61,41.31,107.23c1.22,3.16,1.22,3.17-2.12,3.17H117.22c-2.93,0-3.06.07-4.06,2.7q-5.53,14.58-11,29.17c-1.18,3.12-1.11,3.21,2.2,3.21H215.17a20.74,20.74,0,0,0,4.53-.48c3.9-.84,7.44-5.08,5.4-9.7C224.88,434.11,224.71,433.58,224.5,433.06Zm384-331.62c-1-10.39-3.36-20.35-8.48-29.52a52.37,52.37,0,0,0-22-21.4c-10.27-5.33-21.3-7.14-32.67-7.45a71.83,71.83,0,0,0-11.71.82c-13.22,1.84-25.15,6.6-35.21,15.59a8,8,0,0,1-2.28,1.66,2.88,2.88,0,0,1-.37-2.14c0-3.2,0-6.4,0-9.6,0-3.61,0-3.62-3.54-3.62H447.79c-4.36,0-4.17-.32-4.17,4.18V194.42c0,.72,0,1.44,0,2.16.1,1.82.3,2,2.14,2.1.4,0,.8,0,1.2,0h48.23l1.68,0a1.41,1.41,0,0,0,1.55-1.46c.05-.88.06-1.76.06-2.64q0-35.51,0-71a46,46,0,0,1,2.79-16.23c2.68-7.13,7.25-12.55,14.32-15.67A33.28,33.28,0,0,1,534,89.44c9.13,1.26,15,6.54,17.91,15.26A44.25,44.25,0,0,1,554,118.63q0,37.91,0,75.82c0,4.56-.19,4.24,4.12,4.24h46.79c4,0,4,0,4-3.92q0-38.88,0-77.75C608.89,111.83,609,106.64,608.5,101.44Zm-193.82-6c-6.87-19-19.7-32.89-37.6-42.06-13.93-7.14-28.93-10-44.46-10.37a107.31,107.31,0,0,0-13.16.76A92.91,92.91,0,0,0,284.93,54c-15,7.87-26.46,19.22-33.84,34.51A74.84,74.84,0,0,0,243.74,122a28.43,28.43,0,0,1,.15,3.58A70.23,70.23,0,0,0,248,148.11c6.1,17.35,17.26,30.66,33,40.13,14.54,8.76,30.51,12.49,47.31,13.19a106.81,106.81,0,0,0,15.79-.77,91.33,91.33,0,0,0,36.34-11.45c16.44-9.45,28.16-22.94,34.42-41a81,81,0,0,0,4.09-30.94A75,75,0,0,0,414.68,95.49Zm-51.14,26c.1,7.54-1.11,14.36-4.47,20.63-5.5,10.26-14.28,15.41-25.81,16a33.36,33.36,0,0,1-10-.82c-9.36-2.36-16.33-7.82-20.18-16.63-5.53-12.66-5.61-25.52.48-38.06,4.27-8.79,11.59-13.89,21.13-15.74a33.63,33.63,0,0,1,19.55,1.77c9.42,3.87,15,11.15,17.74,20.73A40.22,40.22,0,0,1,363.54,121.51Zm39,218.41V238.67c0-3.68,0-3.69-3.75-3.69H351.49c-.64,0-1.29,0-1.92,0-1.54.12-1.8.38-1.93,1.86,0,.47,0,1,0,1.44V441c0,3.41,0,3.42,3.49,3.42q23.4,0,46.79,0c4.71,0,4.6.59,4.6-4.49ZM309.35,235H262.08c-3.79,0-3.79,0-3.79,3.89V440c0,.8,0,1.6,0,2.4.1,1.79.31,2,2.17,2.07.4,0,.8,0,1.2,0h48.23c3.15,0,3.21-.08,3.24-3.22V238.69C313.15,235,313.09,235,309.35,235Z"/></svg>