<svg id="Capa_1" data-name="Capa 1" xmlns="http://www.w3.org/2000/svg" viewBox="0 0 1245 674"><title>logo</title><path d="M192.16,300.68h48.49a12,12,0,0,0,10.9-6.47l81.86-170.93,35.67-76.07H304.51l.37,1L218.8,228.26,136.54,53.74a12,12,0,0,0-10.93-6.53H63.35l117.9,247A12,12,0,0,0,192.16,300.68Z"/><path d="M251.11,359.21H184L86,567.5c1.73,1.31,8.54,1.39,10.88,1.39H137a9.92,9.92,0,0,0,9-5.35l67.72-141.41,56,147.29H206.12L189.82,613H335.73a10.88,10.88,0,0,0,3.26-.5c5.12-1.63,7.81-6.7,6-11.33Z"/><path d="M478.73,102.24C415.25,102.24,369,143.85,369,202.31c0,58.83,46.27,100.79,109.75,100.79,64.2,0,109.76-42,109.76-100.79C588.49,143.85,542.93,102.24,478.73,102.24Zm0,146.7c-23,0-40.89-16.86-40.89-46.63,0-29.41,17.94-45.91,40.89-45.91,23.32,0,40.89,16.5,40.89,45.91C519.62,232.08,502.05,248.94,478.73,248.94Z"/><path d="M746.66,102.24c-24.39,0-46.27,8.25-61.69,24.39V105.47H620.05v194.4h68.14v-94c0-32.28,16.86-45.91,38.74-45.91,19.73,0,31.92,11.84,31.92,39.81V299.87H827V188.68C827,128.43,792.21,102.24,746.66,102.24Z"/><rect x="387.17" y="346.74" width="68.15" height="266.14"/><rect x="499.43" y="346.74" width="68.15" height="266.14"/><path d="M706.39,415.24c-61.34,0-106.89,41.61-106.89,100.07,0,58.11,44.84,100.79,114.06,100.79,36.94,0,64.2-10.76,82.85-31.56l-35.86-37.31c-13.28,11.48-25.83,16.86-44.84,16.86-25.11,0-42-11.47-47.7-31.2H809.33c.35-5.38,1.07-11.84,1.07-16.86C810.4,451.83,763.77,415.24,706.39,415.24ZM666.93,497c4-20.44,18.65-33.36,39.82-33.36S743,476.58,746.56,497Z"/><path d="M1095.19,415.24c-28,0-52,11.12-67.43,30.49-13.63-20.8-36.23-30.49-62.77-30.49-23,0-43.4,7.89-58.1,23.68V418.47H842v194.4h68.15V516.39c0-30.13,14.34-43.4,34.43-43.4C962.84,473,974,484.83,974,512.8V612.87h68.15V516.39c0-30.13,14.34-43.4,34.07-43.4,17.93,0,29.41,11.84,29.41,39.81V612.87h68.15V501.68C1173.74,441.43,1140.38,415.24,1095.19,415.24Z"/></svg>