<svg width="86" height="58" viewBox="0 0 86 58" fill="none" xmlns="http://www.w3.org/2000/svg">
<path d="M70.1954 11.2603L42.601 35.5793L15.0067 11.2603C14.7382 11.0298 14.427 10.8544 14.0907 10.7442C13.7545 10.634 13.3998 10.591 13.0469 10.6179C12.6941 10.6447 12.35 10.7408 12.0343 10.9006C11.7185 11.0604 11.4374 11.2809 11.2069 11.5493C10.9763 11.8178 10.801 12.1291 10.6907 12.4653C10.5805 12.8016 10.5376 13.1563 10.5644 13.5091C10.5912 13.862 10.6873 14.2061 10.8471 14.5218C11.007 14.8375 11.2274 15.1187 11.4959 15.3492L40.8456 41.0382C41.3304 41.4658 41.9546 41.7018 42.601 41.7019C43.2482 41.7058 43.8737 41.4693 44.3564 41.0382L73.7062 15.3492C74.223 14.8806 74.5345 14.2273 74.5734 13.5308C74.6123 12.8343 74.3754 12.1505 73.9141 11.6272C73.4527 11.104 72.8039 10.7833 72.108 10.7347C71.4121 10.6861 70.725 10.9134 70.1954 11.3674V11.2603Z" fill="#224364"/>
<path d="M77.2598 0H7.9422C6.89922 0 5.86644 0.205433 4.90285 0.604566C3.93926 1.0037 3.06372 1.58871 2.32622 2.32622C1.58871 3.06372 1.0037 3.93926 0.604566 4.90285C0.205433 5.86645 0 6.89922 0 7.9422V50.0294C0.00565014 52.1341 0.844231 54.151 2.33246 55.6392C3.82069 57.1274 5.83754 57.966 7.9422 57.9716H77.2598C79.3645 57.966 81.3813 57.1274 82.8696 55.6392C84.3578 54.151 85.1964 52.1341 85.202 50.0294V7.9422C85.1964 5.83754 84.3578 3.82069 82.8696 2.33246C81.3813 0.844231 79.3645 0.00565014 77.2598 0ZM79.9144 50.0294C79.9087 50.7298 79.6265 51.3995 79.1293 51.8927C78.6321 52.3859 77.9602 52.6626 77.2598 52.6626H7.9422C7.24187 52.6626 6.5699 52.3859 6.07269 51.8927C5.57548 51.3995 5.29331 50.7298 5.28767 50.0294V7.9422C5.29331 7.24189 5.57548 6.57219 6.07269 6.07898C6.5699 5.58578 7.24187 5.30905 7.9422 5.30907H77.2598C77.9602 5.30905 78.6321 5.58578 79.1293 6.07898C79.6265 6.57219 79.9087 7.24189 79.9144 7.9422V50.0294Z" fill="#224364"/>
</svg>
