<svg width="424" height="368" viewBox="0 0 424 368" fill="none" xmlns="http://www.w3.org/2000/svg">
<path d="M232.318 91.3177L134.299 296.177C133.102 298.623 131.228 300.675 128.899 302.087C126.571 303.5 123.886 304.214 121.164 304.145H63.1678C60.4736 304.222 57.813 303.532 55.4959 302.155C53.1788 300.777 51.3005 298.77 50.0797 296.367L-91.2346 0.153272H-16.6415C-13.9423 0.0809143 -11.2782 0.778424 -8.96058 2.16429C-6.64295 3.55016 -4.76749 5.56714 -3.55338 7.97956L94.9872 217.155L198.128 1.33907L197.701 0.153272H286.425L422.429 350.676C423.018 352.324 423.256 354.076 423.129 355.821C423.002 357.566 422.512 359.266 421.691 360.81C420.87 362.355 419.735 363.711 418.359 364.792C416.984 365.873 415.398 366.655 413.703 367.088C412.171 367.583 410.571 367.839 408.961 367.847H197.701L221.411 304.715H313.36L232.318 91.3177Z" fill="white"/>
</svg>
